<mxfile host="app.diagrams.net" agent="Mozilla/5.0 (Windows NT 10.0; Win64; x64) AppleWebKit/537.36 (KHTML, like Gecko) Chrome/141.0.0.0 Safari/537.36" version="28.2.8">
  <diagram name="Página-1" id="q3Fc5Cr-wcI5TqPsxxkZ">
    <mxGraphModel dx="2050" dy="834" grid="1" gridSize="10" guides="1" tooltips="1" connect="1" arrows="1" fold="1" page="1" pageScale="1" pageWidth="827" pageHeight="1169" math="0" shadow="0">
      <root>
        <mxCell id="0" />
        <mxCell id="1" parent="0" />
        <mxCell id="yxbrWtbAwP95HNMNKSuF-2" value="USERS" style="swimlane;fontStyle=0;childLayout=stackLayout;horizontal=1;startSize=26;horizontalStack=0;resizeParent=1;resizeParentMax=0;resizeLast=0;collapsible=1;marginBottom=0;align=center;fontSize=14;" vertex="1" parent="1">
          <mxGeometry x="390" y="40" width="160" height="270" as="geometry" />
        </mxCell>
        <mxCell id="yxbrWtbAwP95HNMNKSuF-3" value="&lt;li data-end=&quot;343&quot; data-start=&quot;332&quot;&gt;&lt;p data-end=&quot;343&quot; data-start=&quot;334&quot;&gt;id &lt;em data-end=&quot;343&quot; data-start=&quot;337&quot;&gt;(PK)&lt;/em&gt;&lt;/p&gt;&lt;/li&gt;&lt;li data-end=&quot;356&quot; data-start=&quot;344&quot;&gt;&lt;p data-end=&quot;356&quot; data-start=&quot;346&quot;&gt;username&lt;/p&gt;&lt;/li&gt;&lt;li data-end=&quot;370&quot; data-start=&quot;357&quot;&gt;&lt;p data-end=&quot;370&quot; data-start=&quot;359&quot;&gt;full_name&lt;/p&gt;&lt;/li&gt;&lt;li data-end=&quot;380&quot; data-start=&quot;371&quot;&gt;&lt;p data-end=&quot;380&quot; data-start=&quot;373&quot;&gt;email&lt;/p&gt;&lt;/li&gt;&lt;li data-end=&quot;398&quot; data-start=&quot;381&quot;&gt;&lt;p data-end=&quot;398&quot; data-start=&quot;383&quot;&gt;password_hash&lt;/p&gt;&lt;/li&gt;&lt;li data-end=&quot;421&quot; data-start=&quot;399&quot;&gt;&lt;p data-end=&quot;421&quot; data-start=&quot;401&quot;&gt;active &lt;em data-end=&quot;419&quot; data-start=&quot;408&quot;&gt;(boolean)&lt;/em&gt;&lt;/p&gt;&lt;/li&gt;&lt;li data-end=&quot;456&quot; data-start=&quot;422&quot;&gt;&lt;p data-end=&quot;456&quot; data-start=&quot;424&quot;&gt;role_id &lt;em data-end=&quot;454&quot; data-start=&quot;432&quot;&gt;(FK → user_roles.id)&lt;/em&gt;&lt;/p&gt;&lt;/li&gt;&lt;li data-end=&quot;485&quot; data-start=&quot;457&quot;&gt;&lt;p data-end=&quot;485&quot; data-start=&quot;459&quot;&gt;created_at &lt;em data-end=&quot;483&quot; data-start=&quot;470&quot;&gt;(timestamp)&lt;/em&gt;&lt;/p&gt;&lt;/li&gt;" style="text;strokeColor=none;fillColor=none;spacingLeft=4;spacingRight=4;overflow=hidden;rotatable=0;points=[[0,0.5],[1,0.5]];portConstraint=eastwest;fontSize=12;whiteSpace=wrap;html=1;" vertex="1" parent="yxbrWtbAwP95HNMNKSuF-2">
          <mxGeometry y="26" width="160" height="244" as="geometry" />
        </mxCell>
        <mxCell id="yxbrWtbAwP95HNMNKSuF-6" value="USER_ROLES" style="swimlane;fontStyle=0;childLayout=stackLayout;horizontal=1;startSize=26;horizontalStack=0;resizeParent=1;resizeParentMax=0;resizeLast=0;collapsible=1;marginBottom=0;align=center;fontSize=14;" vertex="1" parent="1">
          <mxGeometry x="130" y="230" width="160" height="100" as="geometry" />
        </mxCell>
        <mxCell id="yxbrWtbAwP95HNMNKSuF-7" value="&lt;li data-end=&quot;724&quot; data-start=&quot;713&quot;&gt;&lt;p data-end=&quot;724&quot; data-start=&quot;715&quot;&gt;id &lt;em data-end=&quot;724&quot; data-start=&quot;718&quot;&gt;(PK)&lt;/em&gt;&lt;/p&gt;&lt;/li&gt;&lt;li data-end=&quot;745&quot; data-start=&quot;725&quot;&gt;&lt;p data-end=&quot;745&quot; data-start=&quot;727&quot;&gt;name &lt;em data-end=&quot;743&quot; data-start=&quot;732&quot;&gt;(varchar)&lt;/em&gt;&lt;/p&gt;&lt;/li&gt;" style="text;strokeColor=none;fillColor=none;spacingLeft=4;spacingRight=4;overflow=hidden;rotatable=0;points=[[0,0.5],[1,0.5]];portConstraint=eastwest;fontSize=12;whiteSpace=wrap;html=1;" vertex="1" parent="yxbrWtbAwP95HNMNKSuF-6">
          <mxGeometry y="26" width="160" height="74" as="geometry" />
        </mxCell>
        <mxCell id="yxbrWtbAwP95HNMNKSuF-10" value="CARS" style="swimlane;fontStyle=0;childLayout=stackLayout;horizontal=1;startSize=26;horizontalStack=0;resizeParent=1;resizeParentMax=0;resizeLast=0;collapsible=1;marginBottom=0;align=center;fontSize=14;" vertex="1" parent="1">
          <mxGeometry x="70" y="470" width="160" height="440" as="geometry" />
        </mxCell>
        <mxCell id="yxbrWtbAwP95HNMNKSuF-11" value="&lt;li data-end=&quot;897&quot; data-start=&quot;884&quot;&gt;&lt;p data-end=&quot;897&quot; data-start=&quot;886&quot;&gt;id &lt;em data-end=&quot;895&quot; data-start=&quot;889&quot;&gt;(PK)&lt;/em&gt;&lt;/p&gt;&lt;/li&gt;&lt;li data-end=&quot;919&quot; data-start=&quot;898&quot;&gt;&lt;p data-end=&quot;919&quot; data-start=&quot;900&quot;&gt;model &lt;em data-end=&quot;917&quot; data-start=&quot;906&quot;&gt;(varchar)&lt;/em&gt;&lt;/p&gt;&lt;/li&gt;&lt;li data-end=&quot;944&quot; data-start=&quot;920&quot;&gt;&lt;p data-end=&quot;944&quot; data-start=&quot;922&quot;&gt;description &lt;em data-end=&quot;942&quot; data-start=&quot;934&quot;&gt;(text)&lt;/em&gt;&lt;/p&gt;&lt;/li&gt;&lt;li data-end=&quot;962&quot; data-start=&quot;945&quot;&gt;&lt;p data-end=&quot;962&quot; data-start=&quot;947&quot;&gt;year &lt;em data-end=&quot;960&quot; data-start=&quot;952&quot;&gt;(int4)&lt;/em&gt;&lt;/p&gt;&lt;/li&gt;&lt;li data-end=&quot;984&quot; data-start=&quot;963&quot;&gt;&lt;p data-end=&quot;984&quot; data-start=&quot;965&quot;&gt;price &lt;em data-end=&quot;982&quot; data-start=&quot;971&quot;&gt;(numeric)&lt;/em&gt;&lt;/p&gt;&lt;/li&gt;&lt;li data-end=&quot;1007&quot; data-start=&quot;985&quot;&gt;&lt;p data-end=&quot;1007&quot; data-start=&quot;987&quot;&gt;image_url &lt;em data-end=&quot;1005&quot; data-start=&quot;997&quot;&gt;(text)&lt;/em&gt;&lt;/p&gt;&lt;/li&gt;&lt;li data-end=&quot;1033&quot; data-start=&quot;1008&quot;&gt;&lt;p data-end=&quot;1033&quot; data-start=&quot;1010&quot;&gt;is_published &lt;em data-end=&quot;1031&quot; data-start=&quot;1023&quot;&gt;(bool)&lt;/em&gt;&lt;/p&gt;&lt;/li&gt;&lt;li data-end=&quot;1079&quot; data-start=&quot;1034&quot;&gt;&lt;p data-end=&quot;1079&quot; data-start=&quot;1036&quot;&gt;transmission_id &lt;em data-end=&quot;1077&quot; data-start=&quot;1052&quot;&gt;(FK → transmissions.id)&lt;/em&gt;&lt;/p&gt;&lt;/li&gt;&lt;li data-end=&quot;1123&quot; data-start=&quot;1080&quot;&gt;&lt;p data-end=&quot;1123&quot; data-start=&quot;1082&quot;&gt;condition_id &lt;em data-end=&quot;1121&quot; data-start=&quot;1095&quot;&gt;(FK → car_conditions.id)&lt;/em&gt;&lt;/p&gt;&lt;/li&gt;&lt;li data-end=&quot;1156&quot; data-start=&quot;1124&quot;&gt;&lt;p data-end=&quot;1156&quot; data-start=&quot;1126&quot;&gt;created_by &lt;em data-end=&quot;1154&quot; data-start=&quot;1137&quot;&gt;(FK → users.id)&lt;/em&gt;&lt;/p&gt;&lt;/li&gt;&lt;li data-end=&quot;1185&quot; data-start=&quot;1157&quot;&gt;&lt;p data-end=&quot;1185&quot; data-start=&quot;1159&quot;&gt;created_at &lt;em data-end=&quot;1183&quot; data-start=&quot;1170&quot;&gt;(timestamp)&lt;/em&gt;&lt;/p&gt;&lt;/li&gt;&lt;li data-end=&quot;1214&quot; data-start=&quot;1186&quot;&gt;&lt;p data-end=&quot;1214&quot; data-start=&quot;1188&quot;&gt;updated_at &lt;em data-end=&quot;1212&quot; data-start=&quot;1199&quot;&gt;(timestamp)&lt;/em&gt;&lt;/p&gt;&lt;/li&gt;&lt;li data-end=&quot;1235&quot; data-start=&quot;1215&quot;&gt;&lt;p data-end=&quot;1235&quot; data-start=&quot;1217&quot;&gt;is_sold &lt;em data-end=&quot;1233&quot; data-start=&quot;1225&quot;&gt;(bool)&lt;/em&gt;&lt;/p&gt;&lt;/li&gt;&lt;li data-end=&quot;1256&quot; data-start=&quot;1236&quot;&gt;&lt;p data-end=&quot;1256&quot; data-start=&quot;1238&quot;&gt;sold_at &lt;em data-end=&quot;1254&quot; data-start=&quot;1246&quot;&gt;(date)&lt;/em&gt;&lt;/p&gt;&lt;/li&gt;" style="text;strokeColor=none;fillColor=none;spacingLeft=4;spacingRight=4;overflow=hidden;rotatable=0;points=[[0,0.5],[1,0.5]];portConstraint=eastwest;fontSize=12;whiteSpace=wrap;html=1;" vertex="1" parent="yxbrWtbAwP95HNMNKSuF-10">
          <mxGeometry y="26" width="160" height="414" as="geometry" />
        </mxCell>
        <mxCell id="yxbrWtbAwP95HNMNKSuF-14" value="CAR_IMAGES" style="swimlane;fontStyle=0;childLayout=stackLayout;horizontal=1;startSize=26;horizontalStack=0;resizeParent=1;resizeParentMax=0;resizeLast=0;collapsible=1;marginBottom=0;align=center;fontSize=14;" vertex="1" parent="1">
          <mxGeometry x="330" y="470" width="160" height="120" as="geometry" />
        </mxCell>
        <mxCell id="yxbrWtbAwP95HNMNKSuF-15" value="&lt;li data-end=&quot;1723&quot; data-start=&quot;1710&quot;&gt;&lt;p data-end=&quot;1723&quot; data-start=&quot;1712&quot;&gt;id &lt;em data-end=&quot;1721&quot; data-start=&quot;1715&quot;&gt;(PK)&lt;/em&gt;&lt;/p&gt;&lt;/li&gt;&lt;li data-end=&quot;1740&quot; data-start=&quot;1724&quot;&gt;&lt;p data-end=&quot;1740&quot; data-start=&quot;1726&quot;&gt;url &lt;em data-end=&quot;1738&quot; data-start=&quot;1730&quot;&gt;(text)&lt;/em&gt;&lt;/p&gt;&lt;/li&gt;&lt;li data-end=&quot;1768&quot; data-start=&quot;1741&quot;&gt;&lt;p data-end=&quot;1768&quot; data-start=&quot;1743&quot;&gt;car_id &lt;em data-end=&quot;1766&quot; data-start=&quot;1750&quot;&gt;(FK → cars.id)&lt;/em&gt;&lt;/p&gt;&lt;/li&gt;" style="text;strokeColor=none;fillColor=none;spacingLeft=4;spacingRight=4;overflow=hidden;rotatable=0;points=[[0,0.5],[1,0.5]];portConstraint=eastwest;fontSize=12;whiteSpace=wrap;html=1;" vertex="1" parent="yxbrWtbAwP95HNMNKSuF-14">
          <mxGeometry y="26" width="160" height="94" as="geometry" />
        </mxCell>
        <mxCell id="yxbrWtbAwP95HNMNKSuF-39" style="edgeStyle=orthogonalEdgeStyle;rounded=0;orthogonalLoop=1;jettySize=auto;html=1;exitX=0.25;exitY=0;exitDx=0;exitDy=0;" edge="1" parent="1" source="yxbrWtbAwP95HNMNKSuF-18" target="yxbrWtbAwP95HNMNKSuF-3">
          <mxGeometry relative="1" as="geometry" />
        </mxCell>
        <mxCell id="yxbrWtbAwP95HNMNKSuF-18" value="MESSAGES" style="swimlane;fontStyle=0;childLayout=stackLayout;horizontal=1;startSize=26;horizontalStack=0;resizeParent=1;resizeParentMax=0;resizeLast=0;collapsible=1;marginBottom=0;align=center;fontSize=14;" vertex="1" parent="1">
          <mxGeometry x="580" y="470" width="160" height="280" as="geometry" />
        </mxCell>
        <mxCell id="yxbrWtbAwP95HNMNKSuF-19" value="&lt;li data-end=&quot;1910&quot; data-start=&quot;1897&quot;&gt;&lt;p data-end=&quot;1910&quot; data-start=&quot;1899&quot;&gt;id &lt;em data-end=&quot;1908&quot; data-start=&quot;1902&quot;&gt;(PK)&lt;/em&gt;&lt;/p&gt;&lt;/li&gt;&lt;li data-end=&quot;1937&quot; data-start=&quot;1911&quot;&gt;&lt;p data-end=&quot;1937&quot; data-start=&quot;1913&quot;&gt;first_name &lt;em data-end=&quot;1935&quot; data-start=&quot;1924&quot;&gt;(varchar)&lt;/em&gt;&lt;/p&gt;&lt;/li&gt;&lt;li data-end=&quot;1963&quot; data-start=&quot;1938&quot;&gt;&lt;p data-end=&quot;1963&quot; data-start=&quot;1940&quot;&gt;last_name &lt;em data-end=&quot;1961&quot; data-start=&quot;1950&quot;&gt;(varchar)&lt;/em&gt;&lt;/p&gt;&lt;/li&gt;&lt;li data-end=&quot;1985&quot; data-start=&quot;1964&quot;&gt;&lt;p data-end=&quot;1985&quot; data-start=&quot;1966&quot;&gt;email &lt;em data-end=&quot;1983&quot; data-start=&quot;1972&quot;&gt;(varchar)&lt;/em&gt;&lt;/p&gt;&lt;/li&gt;&lt;li data-end=&quot;2007&quot; data-start=&quot;1986&quot;&gt;&lt;p data-end=&quot;2007&quot; data-start=&quot;1988&quot;&gt;phone &lt;em data-end=&quot;2005&quot; data-start=&quot;1994&quot;&gt;(varchar)&lt;/em&gt;&lt;/p&gt;&lt;/li&gt;&lt;li data-end=&quot;2028&quot; data-start=&quot;2008&quot;&gt;&lt;p data-end=&quot;2028&quot; data-start=&quot;2010&quot;&gt;content &lt;em data-end=&quot;2026&quot; data-start=&quot;2018&quot;&gt;(text)&lt;/em&gt;&lt;/p&gt;&lt;/li&gt;&lt;li data-end=&quot;2056&quot; data-start=&quot;2029&quot;&gt;&lt;p data-end=&quot;2056&quot; data-start=&quot;2031&quot;&gt;car_id &lt;em data-end=&quot;2054&quot; data-start=&quot;2038&quot;&gt;(FK → cars.id)&lt;/em&gt;&lt;/p&gt;&lt;/li&gt;&lt;li data-end=&quot;2086&quot; data-start=&quot;2057&quot;&gt;&lt;p data-end=&quot;2086&quot; data-start=&quot;2059&quot;&gt;received_at &lt;em data-end=&quot;2084&quot; data-start=&quot;2071&quot;&gt;(timestamp)&lt;/em&gt;&lt;/p&gt;&lt;/li&gt;&lt;li data-end=&quot;2107&quot; data-start=&quot;2087&quot;&gt;&lt;p data-end=&quot;2107&quot; data-start=&quot;2089&quot;&gt;is_read &lt;em data-end=&quot;2105&quot; data-start=&quot;2097&quot;&gt;(bool)&lt;/em&gt;&lt;/p&gt;&lt;/li&gt;" style="text;strokeColor=none;fillColor=none;spacingLeft=4;spacingRight=4;overflow=hidden;rotatable=0;points=[[0,0.5],[1,0.5]];portConstraint=eastwest;fontSize=12;whiteSpace=wrap;html=1;" vertex="1" parent="yxbrWtbAwP95HNMNKSuF-18">
          <mxGeometry y="26" width="160" height="254" as="geometry" />
        </mxCell>
        <mxCell id="yxbrWtbAwP95HNMNKSuF-40" style="edgeStyle=orthogonalEdgeStyle;rounded=0;orthogonalLoop=1;jettySize=auto;html=1;exitX=0.5;exitY=0;exitDx=0;exitDy=0;entryX=0.5;entryY=0;entryDx=0;entryDy=0;" edge="1" parent="1" source="yxbrWtbAwP95HNMNKSuF-22" target="yxbrWtbAwP95HNMNKSuF-10">
          <mxGeometry relative="1" as="geometry" />
        </mxCell>
        <mxCell id="yxbrWtbAwP95HNMNKSuF-22" value="TRANSMISSIONS" style="swimlane;fontStyle=0;childLayout=stackLayout;horizontal=1;startSize=26;horizontalStack=0;resizeParent=1;resizeParentMax=0;resizeLast=0;collapsible=1;marginBottom=0;align=center;fontSize=14;" vertex="1" parent="1">
          <mxGeometry x="450" y="790" width="160" height="100" as="geometry" />
        </mxCell>
        <mxCell id="yxbrWtbAwP95HNMNKSuF-23" value="&lt;li data-end=&quot;2254&quot; data-start=&quot;2241&quot;&gt;&lt;p data-end=&quot;2254&quot; data-start=&quot;2243&quot;&gt;id &lt;em data-end=&quot;2252&quot; data-start=&quot;2246&quot;&gt;(PK)&lt;/em&gt;&lt;/p&gt;&lt;/li&gt;&lt;li data-end=&quot;2275&quot; data-start=&quot;2255&quot;&gt;&lt;p data-end=&quot;2275&quot; data-start=&quot;2257&quot;&gt;type &lt;em data-end=&quot;2273&quot; data-start=&quot;2262&quot;&gt;(varchar)&lt;/em&gt;&lt;/p&gt;&lt;/li&gt;" style="text;strokeColor=none;fillColor=none;spacingLeft=4;spacingRight=4;overflow=hidden;rotatable=0;points=[[0,0.5],[1,0.5]];portConstraint=eastwest;fontSize=12;whiteSpace=wrap;html=1;" vertex="1" parent="yxbrWtbAwP95HNMNKSuF-22">
          <mxGeometry y="26" width="160" height="74" as="geometry" />
        </mxCell>
        <mxCell id="yxbrWtbAwP95HNMNKSuF-26" value="CAR_CONDITIONS" style="swimlane;fontStyle=0;childLayout=stackLayout;horizontal=1;startSize=26;horizontalStack=0;resizeParent=1;resizeParentMax=0;resizeLast=0;collapsible=1;marginBottom=0;align=center;fontSize=14;" vertex="1" parent="1">
          <mxGeometry x="330" y="645" width="160" height="90" as="geometry" />
        </mxCell>
        <mxCell id="yxbrWtbAwP95HNMNKSuF-27" value="&lt;li data-end=&quot;2444&quot; data-start=&quot;2431&quot;&gt;&lt;p data-end=&quot;2444&quot; data-start=&quot;2433&quot;&gt;id &lt;em data-end=&quot;2442&quot; data-start=&quot;2436&quot;&gt;(PK)&lt;/em&gt;&lt;/p&gt;&lt;/li&gt;&lt;li data-end=&quot;2466&quot; data-start=&quot;2445&quot;&gt;&lt;p data-end=&quot;2466&quot; data-start=&quot;2447&quot;&gt;label &lt;em data-end=&quot;2464&quot; data-start=&quot;2453&quot;&gt;(varchar)&lt;/em&gt;&lt;/p&gt;&lt;/li&gt;" style="text;strokeColor=none;fillColor=none;spacingLeft=4;spacingRight=4;overflow=hidden;rotatable=0;points=[[0,0.5],[1,0.5]];portConstraint=eastwest;fontSize=12;whiteSpace=wrap;html=1;" vertex="1" parent="yxbrWtbAwP95HNMNKSuF-26">
          <mxGeometry y="26" width="160" height="64" as="geometry" />
        </mxCell>
        <mxCell id="yxbrWtbAwP95HNMNKSuF-31" style="edgeStyle=orthogonalEdgeStyle;rounded=0;orthogonalLoop=1;jettySize=auto;html=1;exitX=0;exitY=0.5;exitDx=0;exitDy=0;entryX=0.5;entryY=0;entryDx=0;entryDy=0;" edge="1" parent="1" source="yxbrWtbAwP95HNMNKSuF-3" target="yxbrWtbAwP95HNMNKSuF-6">
          <mxGeometry relative="1" as="geometry" />
        </mxCell>
        <mxCell id="yxbrWtbAwP95HNMNKSuF-33" style="edgeStyle=orthogonalEdgeStyle;rounded=0;orthogonalLoop=1;jettySize=auto;html=1;exitX=1;exitY=0.5;exitDx=0;exitDy=0;entryX=0;entryY=0.5;entryDx=0;entryDy=0;" edge="1" parent="1" source="yxbrWtbAwP95HNMNKSuF-11" target="yxbrWtbAwP95HNMNKSuF-15">
          <mxGeometry relative="1" as="geometry" />
        </mxCell>
        <mxCell id="yxbrWtbAwP95HNMNKSuF-35" style="edgeStyle=orthogonalEdgeStyle;rounded=0;orthogonalLoop=1;jettySize=auto;html=1;exitX=1;exitY=0.5;exitDx=0;exitDy=0;entryX=1;entryY=0.5;entryDx=0;entryDy=0;" edge="1" parent="1" source="yxbrWtbAwP95HNMNKSuF-27" target="yxbrWtbAwP95HNMNKSuF-15">
          <mxGeometry relative="1" as="geometry" />
        </mxCell>
        <mxCell id="yxbrWtbAwP95HNMNKSuF-36" value="" style="endArrow=none;html=1;rounded=0;entryX=0.5;entryY=0;entryDx=0;entryDy=0;" edge="1" parent="1" source="yxbrWtbAwP95HNMNKSuF-15" target="yxbrWtbAwP95HNMNKSuF-26">
          <mxGeometry relative="1" as="geometry">
            <mxPoint x="630" y="510" as="sourcePoint" />
            <mxPoint x="790" y="510" as="targetPoint" />
          </mxGeometry>
        </mxCell>
        <mxCell id="yxbrWtbAwP95HNMNKSuF-42" value="" style="endArrow=classic;html=1;rounded=0;entryX=0.25;entryY=0;entryDx=0;entryDy=0;exitX=0.321;exitY=0.99;exitDx=0;exitDy=0;exitPerimeter=0;" edge="1" parent="1" source="yxbrWtbAwP95HNMNKSuF-3" target="yxbrWtbAwP95HNMNKSuF-10">
          <mxGeometry width="50" height="50" relative="1" as="geometry">
            <mxPoint x="780" y="360" as="sourcePoint" />
            <mxPoint x="830" y="310" as="targetPoint" />
            <Array as="points">
              <mxPoint x="440" y="410" />
              <mxPoint x="110" y="410" />
            </Array>
          </mxGeometry>
        </mxCell>
      </root>
    </mxGraphModel>
  </diagram>
</mxfile>
